# xmcd
#
# Track frame offsets: 
#        150
#        12676
#        28277
#        43516
#        57767
#        72244
#        89420
#        108283
#        120813
#        136007
#        148898
#
# Disc length: 2181 seconds
#
# Revision: 1
# Processed by: cddbd v1.5.2PL0 Copyright (c) Steve Scherf et al.
# Submitted via: ExactAudioCopy v1.1
#
DISCID=9508830b
DTITLE=Kristy Cox - Part Of Me
DYEAR=2016
DGENRE=Bluegrass
TTITLE0=Another Weary Mile
TTITLE1=You Walked In
TTITLE2=Baby, You Ain't Baby Anymore
TTITLE3=William Henry Johnson
TTITLE4=Little White Whiskey Lies
TTITLE5=The Part Of Me (That's Still In Love With You)
TTITLE6=Daddy Doesn't Pray Anymore
TTITLE7=I'm No Stranger To This Lonesome Road
TTITLE8=Young Love Never Grows Old
TTITLE9=Your Train Don't Stop Here Anymore
TTITLE10=That's Where The Faith Comes In
EXTD=
EXTT0=
EXTT1=
EXTT2=
EXTT3=
EXTT4=
EXTT5=
EXTT6=
EXTT7=
EXTT8=
EXTT9=
EXTT10=
PLAYORDER=
